<svg xmlns="http://www.w3.org/2000/svg" viewBox="0 0 3289.77 677.6"><defs><style>.cls-1,.cls-3,.cls-4{fill:none;stroke:#fff;stroke-miterlimit:10;}.cls-1{stroke-width:25.47px;}.cls-2{fill:#fff;}.cls-3{stroke-width:129.93px;}.cls-4{stroke-width:88.41px;}</style></defs><g id="main"><path class="cls-1" d="M377.06,57c81.42,41.67,113.75,141.81,72.08,223.23" transform="translate(-144.45 -44.73)"/><path class="cls-1" d="M354.83,100.43A117.21,117.21,0,0,1,405.71,258" transform="translate(-144.45 -44.73)"/><path class="cls-1" d="M332.61,143.85a68.39,68.39,0,0,1,29.68,91.92" transform="translate(-144.45 -44.73)"/><circle class="cls-2" cx="189.68" cy="99.72" r="13.22"/><circle class="cls-2" cx="213.44" cy="57.66" r="13.22"/><circle class="cls-2" cx="260.34" cy="213.62" r="13.22"/><circle class="cls-2" cx="304.69" cy="235.49" r="13.22"/><circle class="cls-2" cx="232.87" cy="13.22" r="13.22"/><circle class="cls-2" cx="217.84" cy="191.04" r="13.22"/><path class="cls-3" d="M650.49,178V462.41c0,107.29-87,194.27-194.27,194.27H430.78c-107.29,0-194.26-87-194.26-194.27V343.2" transform="translate(-144.45 -44.73)"/><circle class="cls-4" cx="91.1" cy="190.62" r="46.89"/></g><g id="Layer_18" data-name="Layer 18"><path class="cls-2" d="M804.89,632.56h58.53V261.15H804.89c-25.84,0-38.28-15.37-38.28-40,0-25,11.76-40.93,38.28-40.93h235c88.63,0,153.38,37.61,179.65,103.76,8.48,21.36,12.66,44.8,12.66,70.06,0,85.92-46.57,137.62-111.66,160.44-24,8.41-50.89,12.51-80.65,12.51H949.67V632.56h92c26,0,38.29,14.67,38.29,40s-12.24,40-38.29,40H804.89c-25.84,0-38.28-15.38-38.28-40C766.61,647.25,778.84,632.56,804.89,632.56Zm226.19-371.41H949.67V446h81.41c70.83,0,111.34-28.94,111.34-92C1142.42,290.1,1102.32,261.15,1031.08,261.15Z" transform="translate(-144.45 -44.73)"/><path class="cls-2" d="M1676.64,352.24c0-63.31-41.71-95.49-109.57-95.49-75.55,0-116.77,48.22-135.58,109.71q-10.89,35.6-11,80c0,87.25,29.49,151.12,84,177.09,17.47,8.33,37,12.57,59.07,12.57,61.3,0,108.4-17.82,143.63-46,22.62-18.09,43.69-5.21,55.1,14.49,12.39,21.07,13.46,44.25-8.5,59.46-49.22,34.24-113,58.3-190.23,58.3-118.62,0-188.12-72.69-216.88-163.91q-16-50.7-15.91-112c0-123.74,50.56-214.69,138-255.1,28.83-13.33,60.56-19.94,94.83-19.94,48.23,0,86.18,14.47,113.1,37.1.77-28.64,19.12-37.1,43.56-37.1,25.78,0,42.68,10.45,42.68,38.29V352.24c0,27.57-17.62,38.29-42.68,38.29C1694.77,390.53,1676.64,380.54,1676.64,352.24Z" transform="translate(-144.45 -44.73)"/><path class="cls-2" d="M1899.75,632.56h40.93V261.15h-40.93c-25.84,0-38.28-15.37-38.28-40,0-25,11.75-40.93,38.28-40.93h217.39c82.5,0,143.54,31.78,169.42,92.5,8.26,19.38,12.32,40.73,12.32,63.72,0,73.08-48,114.17-103.48,133.16,18.27,14.38,29.13,29.44,41.13,46.12,19.68,27.4,33.2,57.89,50.13,84.23,11.07,18.45,20.85,32.65,35.55,32.65h7.92c26,0,38.28,14.67,38.28,40s-12.23,40-38.28,40H2300.2c-15,0-29.64-5.46-43.36-15.25-31.22-22.3-56.31-75.87-74.94-109.2-25.55-45.72-49.43-86.91-104.52-94.36a256.25,256.25,0,0,0-34.17-2.1h-15.4V632.56h44.44c26,0,38.29,14.67,38.29,40s-12.24,40-38.29,40h-172.5c-25.84,0-38.28-15.38-38.28-40C1861.47,647.25,1873.7,632.56,1899.75,632.56Zm208.59-371.41h-80.53V410.77h76.13c64.19,0,105.17-18.39,105.17-74.37C2209.11,284.1,2170.37,261.15,2108.34,261.15Z" transform="translate(-144.45 -44.73)"/><path class="cls-2" d="M2447.18,632.56h33V261.15h-33c-25.84,0-38.29-15.37-38.29-40,0-25,11.76-40.93,38.29-40.93H2823c26.81,0,37.4,16.44,37.4,40.93V330.24c0,27.56-17.62,38.29-42.68,38.29-25.44,0-43.57-10-43.57-38.29V261.15H2566.43v137.3h85.37V370.73c0-27.85,17.54-39.17,43.57-39.17,26.47,0,42.69,10.83,42.69,39.17V507.14c0,27.26-17.08,39.17-42.69,39.17-26,0-43.57-11.16-43.57-39.17v-28.6h-85.37v154h216.51V545c0-27.26,17.08-39.17,42.69-39.17,26,0,43.56,11.16,43.56,39.17V672.6c0,25.36-12.23,40-38.28,40H2447.18c-25.84,0-38.29-15.38-38.29-40C2408.89,647.25,2421.13,632.56,2447.18,632.56Z" transform="translate(-144.45 -44.73)"/><path class="cls-2" d="M2994.61,632.56H3032V261.15h-37.4c-25.85,0-38.29-15.37-38.29-40,0-25,11.76-40.93,38.29-40.93H3197c117.71,0,189.68,66.75,220.32,156.18q17,49.51,16.87,110.06c0,123.48-51.51,210.11-140.95,247.77-29.33,12.35-61.51,18.46-96.24,18.46H2994.61c-25.85,0-38.29-15.38-38.29-40C2956.32,647.25,2968.55,632.56,2994.61,632.56Zm349-186.14c0-90.23-32.11-148.62-91.78-173.34-19.05-7.9-40.44-11.93-64.44-11.93h-69.09V632.56h69.09C3294.46,632.56,3343.57,558.88,3343.57,446.42Z" transform="translate(-144.45 -44.73)"/></g></svg>